<mxfile host="app.diagrams.net" agent="Mozilla/5.0 (Windows NT 10.0; Win64; x64) AppleWebKit/537.36 (KHTML, like Gecko) Chrome/131.0.0.0 Safari/537.36" version="24.8.6">
  <diagram name="Сторінка-1" id="C_6xAkRfbpX8yN3zAcb3">
    <mxGraphModel dx="1050" dy="530" grid="1" gridSize="10" guides="1" tooltips="1" connect="1" arrows="1" fold="1" page="1" pageScale="1" pageWidth="827" pageHeight="1169" math="0" shadow="0">
      <root>
        <mxCell id="0" />
        <mxCell id="1" parent="0" />
        <mxCell id="yI4ZCZoyr8CGcQq7hegF-1" value="&lt;font style=&quot;font-size: 14px;&quot;&gt;End&lt;/font&gt;" style="ellipse;whiteSpace=wrap;html=1;" vertex="1" parent="1">
          <mxGeometry x="354" y="1090" width="120" height="50" as="geometry" />
        </mxCell>
        <mxCell id="yI4ZCZoyr8CGcQq7hegF-2" style="edgeStyle=orthogonalEdgeStyle;rounded=0;orthogonalLoop=1;jettySize=auto;html=1;exitX=0.5;exitY=1;exitDx=0;exitDy=0;entryX=0.5;entryY=0;entryDx=0;entryDy=0;" edge="1" parent="1" source="yI4ZCZoyr8CGcQq7hegF-3" target="yI4ZCZoyr8CGcQq7hegF-5">
          <mxGeometry relative="1" as="geometry">
            <mxPoint x="414" y="130" as="targetPoint" />
          </mxGeometry>
        </mxCell>
        <mxCell id="yI4ZCZoyr8CGcQq7hegF-3" value="&lt;font style=&quot;font-size: 14px;&quot;&gt;Start&lt;/font&gt;" style="ellipse;whiteSpace=wrap;html=1;" vertex="1" parent="1">
          <mxGeometry x="354" y="40" width="120" height="50" as="geometry" />
        </mxCell>
        <mxCell id="yI4ZCZoyr8CGcQq7hegF-4" style="edgeStyle=orthogonalEdgeStyle;rounded=0;orthogonalLoop=1;jettySize=auto;html=1;exitX=0.5;exitY=1;exitDx=0;exitDy=0;entryX=0.5;entryY=0;entryDx=0;entryDy=0;" edge="1" parent="1" source="yI4ZCZoyr8CGcQq7hegF-5">
          <mxGeometry relative="1" as="geometry">
            <mxPoint x="414" y="250" as="targetPoint" />
          </mxGeometry>
        </mxCell>
        <mxCell id="yI4ZCZoyr8CGcQq7hegF-5" value="&lt;span style=&quot;font-size: 14px;&quot;&gt;int n&lt;/span&gt;&lt;div&gt;&lt;span style=&quot;font-size: 14px;&quot;&gt;char s[n]&lt;/span&gt;&lt;/div&gt;&lt;div&gt;&lt;span style=&quot;font-size: 14px;&quot;&gt;int i=0, v=0, k=0, pv=0, pk=0&lt;/span&gt;&lt;/div&gt;" style="shape=parallelogram;perimeter=parallelogramPerimeter;whiteSpace=wrap;html=1;fixedSize=1;" vertex="1" parent="1">
          <mxGeometry x="335.84" y="120" width="156.33" height="70" as="geometry" />
        </mxCell>
        <mxCell id="yI4ZCZoyr8CGcQq7hegF-30" style="edgeStyle=orthogonalEdgeStyle;rounded=0;orthogonalLoop=1;jettySize=auto;html=1;exitX=0.5;exitY=1;exitDx=0;exitDy=0;entryX=0.5;entryY=0;entryDx=0;entryDy=0;" edge="1" parent="1" source="yI4ZCZoyr8CGcQq7hegF-28" target="yI4ZCZoyr8CGcQq7hegF-29">
          <mxGeometry relative="1" as="geometry" />
        </mxCell>
        <mxCell id="yI4ZCZoyr8CGcQq7hegF-28" value="&lt;font style=&quot;font-size: 14px;&quot;&gt;n&lt;/font&gt;" style="shape=parallelogram;perimeter=parallelogramPerimeter;whiteSpace=wrap;html=1;fixedSize=1;" vertex="1" parent="1">
          <mxGeometry x="354" y="220" width="120" height="60" as="geometry" />
        </mxCell>
        <mxCell id="yI4ZCZoyr8CGcQq7hegF-32" style="edgeStyle=orthogonalEdgeStyle;rounded=0;orthogonalLoop=1;jettySize=auto;html=1;exitX=1;exitY=0.5;exitDx=0;exitDy=0;entryX=0;entryY=0.5;entryDx=0;entryDy=0;" edge="1" parent="1" source="yI4ZCZoyr8CGcQq7hegF-29" target="yI4ZCZoyr8CGcQq7hegF-31">
          <mxGeometry relative="1" as="geometry" />
        </mxCell>
        <mxCell id="yI4ZCZoyr8CGcQq7hegF-33" value="Yes" style="edgeLabel;html=1;align=center;verticalAlign=middle;resizable=0;points=[];" vertex="1" connectable="0" parent="yI4ZCZoyr8CGcQq7hegF-32">
          <mxGeometry x="-0.4519" relative="1" as="geometry">
            <mxPoint as="offset" />
          </mxGeometry>
        </mxCell>
        <mxCell id="yI4ZCZoyr8CGcQq7hegF-43" style="edgeStyle=orthogonalEdgeStyle;rounded=0;orthogonalLoop=1;jettySize=auto;html=1;exitX=0;exitY=0.5;exitDx=0;exitDy=0;entryX=0;entryY=0.5;entryDx=0;entryDy=0;" edge="1" parent="1" source="yI4ZCZoyr8CGcQq7hegF-29" target="yI4ZCZoyr8CGcQq7hegF-42">
          <mxGeometry relative="1" as="geometry">
            <Array as="points">
              <mxPoint x="330" y="360" />
              <mxPoint x="330" y="450" />
            </Array>
          </mxGeometry>
        </mxCell>
        <mxCell id="yI4ZCZoyr8CGcQq7hegF-44" value="No" style="edgeLabel;html=1;align=center;verticalAlign=middle;resizable=0;points=[];" vertex="1" connectable="0" parent="yI4ZCZoyr8CGcQq7hegF-43">
          <mxGeometry x="-0.7528" relative="1" as="geometry">
            <mxPoint as="offset" />
          </mxGeometry>
        </mxCell>
        <mxCell id="yI4ZCZoyr8CGcQq7hegF-29" value="&lt;font style=&quot;font-size: 14px;&quot;&gt;i&amp;lt;n&lt;/font&gt;" style="rhombus;whiteSpace=wrap;html=1;" vertex="1" parent="1">
          <mxGeometry x="374" y="320" width="80" height="80" as="geometry" />
        </mxCell>
        <mxCell id="yI4ZCZoyr8CGcQq7hegF-35" style="edgeStyle=orthogonalEdgeStyle;rounded=0;orthogonalLoop=1;jettySize=auto;html=1;exitX=1;exitY=0.5;exitDx=0;exitDy=0;entryX=0;entryY=0.5;entryDx=0;entryDy=0;" edge="1" parent="1" source="yI4ZCZoyr8CGcQq7hegF-31" target="yI4ZCZoyr8CGcQq7hegF-34">
          <mxGeometry relative="1" as="geometry" />
        </mxCell>
        <mxCell id="yI4ZCZoyr8CGcQq7hegF-31" value="&lt;font style=&quot;font-size: 14px;&quot;&gt;input s[i]&lt;/font&gt;" style="shape=parallelogram;perimeter=parallelogramPerimeter;whiteSpace=wrap;html=1;fixedSize=1;" vertex="1" parent="1">
          <mxGeometry x="490" y="330" width="120" height="60" as="geometry" />
        </mxCell>
        <mxCell id="yI4ZCZoyr8CGcQq7hegF-36" style="edgeStyle=orthogonalEdgeStyle;rounded=0;orthogonalLoop=1;jettySize=auto;html=1;exitX=0.5;exitY=0;exitDx=0;exitDy=0;" edge="1" parent="1" source="yI4ZCZoyr8CGcQq7hegF-34">
          <mxGeometry relative="1" as="geometry">
            <mxPoint x="410" y="290" as="targetPoint" />
            <Array as="points">
              <mxPoint x="700" y="290" />
            </Array>
          </mxGeometry>
        </mxCell>
        <mxCell id="yI4ZCZoyr8CGcQq7hegF-34" value="i++" style="rounded=1;whiteSpace=wrap;html=1;" vertex="1" parent="1">
          <mxGeometry x="650" y="335" width="100" height="50" as="geometry" />
        </mxCell>
        <mxCell id="yI4ZCZoyr8CGcQq7hegF-37" style="edgeStyle=orthogonalEdgeStyle;rounded=0;orthogonalLoop=1;jettySize=auto;html=1;exitX=0;exitY=0;exitDx=0;exitDy=0;entryX=0.153;entryY=0.013;entryDx=0;entryDy=0;entryPerimeter=0;" edge="1" parent="1" source="yI4ZCZoyr8CGcQq7hegF-31" target="yI4ZCZoyr8CGcQq7hegF-31">
          <mxGeometry relative="1" as="geometry" />
        </mxCell>
        <mxCell id="yI4ZCZoyr8CGcQq7hegF-48" style="edgeStyle=orthogonalEdgeStyle;rounded=0;orthogonalLoop=1;jettySize=auto;html=1;exitX=0.5;exitY=1;exitDx=0;exitDy=0;entryX=0.5;entryY=0;entryDx=0;entryDy=0;" edge="1" parent="1" source="yI4ZCZoyr8CGcQq7hegF-38" target="yI4ZCZoyr8CGcQq7hegF-46">
          <mxGeometry relative="1" as="geometry" />
        </mxCell>
        <mxCell id="yI4ZCZoyr8CGcQq7hegF-85" value="Yes" style="edgeLabel;html=1;align=center;verticalAlign=middle;resizable=0;points=[];" vertex="1" connectable="0" parent="yI4ZCZoyr8CGcQq7hegF-48">
          <mxGeometry x="-0.3154" y="-4" relative="1" as="geometry">
            <mxPoint as="offset" />
          </mxGeometry>
        </mxCell>
        <mxCell id="yI4ZCZoyr8CGcQq7hegF-87" style="edgeStyle=orthogonalEdgeStyle;rounded=0;orthogonalLoop=1;jettySize=auto;html=1;exitX=0;exitY=0.5;exitDx=0;exitDy=0;entryX=0;entryY=0.5;entryDx=0;entryDy=0;" edge="1" parent="1" source="yI4ZCZoyr8CGcQq7hegF-38" target="yI4ZCZoyr8CGcQq7hegF-86">
          <mxGeometry relative="1" as="geometry">
            <Array as="points">
              <mxPoint x="110" y="540" />
              <mxPoint x="110" y="960" />
            </Array>
          </mxGeometry>
        </mxCell>
        <mxCell id="yI4ZCZoyr8CGcQq7hegF-88" value="No" style="edgeLabel;html=1;align=center;verticalAlign=middle;resizable=0;points=[];" vertex="1" connectable="0" parent="yI4ZCZoyr8CGcQq7hegF-87">
          <mxGeometry x="-0.854" y="-1" relative="1" as="geometry">
            <mxPoint as="offset" />
          </mxGeometry>
        </mxCell>
        <mxCell id="yI4ZCZoyr8CGcQq7hegF-38" value="&lt;font style=&quot;font-size: 14px;&quot;&gt;i&amp;lt;n&lt;/font&gt;" style="rhombus;whiteSpace=wrap;html=1;" vertex="1" parent="1">
          <mxGeometry x="374" y="500" width="80" height="80" as="geometry" />
        </mxCell>
        <mxCell id="yI4ZCZoyr8CGcQq7hegF-45" style="edgeStyle=orthogonalEdgeStyle;rounded=0;orthogonalLoop=1;jettySize=auto;html=1;exitX=0.5;exitY=1;exitDx=0;exitDy=0;entryX=0.5;entryY=0;entryDx=0;entryDy=0;" edge="1" parent="1" source="yI4ZCZoyr8CGcQq7hegF-42" target="yI4ZCZoyr8CGcQq7hegF-38">
          <mxGeometry relative="1" as="geometry" />
        </mxCell>
        <mxCell id="yI4ZCZoyr8CGcQq7hegF-42" value="&lt;font style=&quot;font-size: 14px;&quot;&gt;i=0&lt;/font&gt;" style="rounded=1;whiteSpace=wrap;html=1;" vertex="1" parent="1">
          <mxGeometry x="374" y="430" width="80" height="40" as="geometry" />
        </mxCell>
        <mxCell id="yI4ZCZoyr8CGcQq7hegF-49" style="edgeStyle=orthogonalEdgeStyle;rounded=0;orthogonalLoop=1;jettySize=auto;html=1;exitX=1;exitY=0.5;exitDx=0;exitDy=0;entryX=0;entryY=0.5;entryDx=0;entryDy=0;" edge="1" parent="1" source="yI4ZCZoyr8CGcQq7hegF-46" target="yI4ZCZoyr8CGcQq7hegF-47">
          <mxGeometry relative="1" as="geometry" />
        </mxCell>
        <mxCell id="yI4ZCZoyr8CGcQq7hegF-50" value="No" style="edgeLabel;html=1;align=center;verticalAlign=middle;resizable=0;points=[];" vertex="1" connectable="0" parent="yI4ZCZoyr8CGcQq7hegF-49">
          <mxGeometry x="-0.5222" y="-3" relative="1" as="geometry">
            <mxPoint x="-3" y="-3" as="offset" />
          </mxGeometry>
        </mxCell>
        <mxCell id="yI4ZCZoyr8CGcQq7hegF-52" style="edgeStyle=orthogonalEdgeStyle;rounded=0;orthogonalLoop=1;jettySize=auto;html=1;exitX=0;exitY=0.5;exitDx=0;exitDy=0;entryX=1;entryY=0.5;entryDx=0;entryDy=0;" edge="1" parent="1" source="yI4ZCZoyr8CGcQq7hegF-46" target="yI4ZCZoyr8CGcQq7hegF-51">
          <mxGeometry relative="1" as="geometry" />
        </mxCell>
        <mxCell id="yI4ZCZoyr8CGcQq7hegF-53" value="Yes" style="edgeLabel;html=1;align=center;verticalAlign=middle;resizable=0;points=[];" vertex="1" connectable="0" parent="yI4ZCZoyr8CGcQq7hegF-52">
          <mxGeometry x="-0.2" y="1" relative="1" as="geometry">
            <mxPoint as="offset" />
          </mxGeometry>
        </mxCell>
        <mxCell id="yI4ZCZoyr8CGcQq7hegF-46" value="&lt;font style=&quot;font-size: 14px;&quot;&gt;s[i]==&#39;V&#39;&lt;/font&gt;" style="rhombus;whiteSpace=wrap;html=1;" vertex="1" parent="1">
          <mxGeometry x="270" y="620" width="70" height="70" as="geometry" />
        </mxCell>
        <mxCell id="yI4ZCZoyr8CGcQq7hegF-55" style="edgeStyle=orthogonalEdgeStyle;rounded=0;orthogonalLoop=1;jettySize=auto;html=1;exitX=1;exitY=0.5;exitDx=0;exitDy=0;entryX=0;entryY=0.5;entryDx=0;entryDy=0;" edge="1" parent="1" source="yI4ZCZoyr8CGcQq7hegF-47" target="yI4ZCZoyr8CGcQq7hegF-54">
          <mxGeometry relative="1" as="geometry" />
        </mxCell>
        <mxCell id="yI4ZCZoyr8CGcQq7hegF-56" value="Yes" style="edgeLabel;html=1;align=center;verticalAlign=middle;resizable=0;points=[];" vertex="1" connectable="0" parent="yI4ZCZoyr8CGcQq7hegF-55">
          <mxGeometry x="-0.44" y="-2" relative="1" as="geometry">
            <mxPoint as="offset" />
          </mxGeometry>
        </mxCell>
        <mxCell id="yI4ZCZoyr8CGcQq7hegF-69" style="edgeStyle=orthogonalEdgeStyle;rounded=0;orthogonalLoop=1;jettySize=auto;html=1;exitX=0.5;exitY=1;exitDx=0;exitDy=0;" edge="1" parent="1" source="yI4ZCZoyr8CGcQq7hegF-47">
          <mxGeometry relative="1" as="geometry">
            <mxPoint x="300" y="720" as="targetPoint" />
            <Array as="points">
              <mxPoint x="475" y="720" />
            </Array>
          </mxGeometry>
        </mxCell>
        <mxCell id="yI4ZCZoyr8CGcQq7hegF-71" value="No" style="edgeLabel;html=1;align=center;verticalAlign=middle;resizable=0;points=[];" vertex="1" connectable="0" parent="yI4ZCZoyr8CGcQq7hegF-69">
          <mxGeometry x="-0.9063" y="-1" relative="1" as="geometry">
            <mxPoint as="offset" />
          </mxGeometry>
        </mxCell>
        <mxCell id="yI4ZCZoyr8CGcQq7hegF-47" value="&lt;font style=&quot;font-size: 14px;&quot;&gt;s[i]==&#39;K&#39;&lt;/font&gt;" style="rhombus;whiteSpace=wrap;html=1;" vertex="1" parent="1">
          <mxGeometry x="440" y="620" width="70" height="70" as="geometry" />
        </mxCell>
        <mxCell id="yI4ZCZoyr8CGcQq7hegF-67" style="edgeStyle=orthogonalEdgeStyle;rounded=0;orthogonalLoop=1;jettySize=auto;html=1;exitX=0.5;exitY=1;exitDx=0;exitDy=0;entryX=0.5;entryY=0;entryDx=0;entryDy=0;" edge="1" parent="1" source="yI4ZCZoyr8CGcQq7hegF-51" target="yI4ZCZoyr8CGcQq7hegF-61">
          <mxGeometry relative="1" as="geometry">
            <Array as="points">
              <mxPoint x="185" y="710" />
              <mxPoint x="305" y="710" />
            </Array>
          </mxGeometry>
        </mxCell>
        <mxCell id="yI4ZCZoyr8CGcQq7hegF-51" value="&lt;font style=&quot;font-size: 14px;&quot;&gt;v++&lt;/font&gt;" style="rounded=1;whiteSpace=wrap;html=1;" vertex="1" parent="1">
          <mxGeometry x="140" y="632.5" width="90" height="45" as="geometry" />
        </mxCell>
        <mxCell id="yI4ZCZoyr8CGcQq7hegF-70" style="edgeStyle=orthogonalEdgeStyle;rounded=0;orthogonalLoop=1;jettySize=auto;html=1;exitX=0.5;exitY=1;exitDx=0;exitDy=0;" edge="1" parent="1" source="yI4ZCZoyr8CGcQq7hegF-54">
          <mxGeometry relative="1" as="geometry">
            <mxPoint x="470" y="720" as="targetPoint" />
            <Array as="points">
              <mxPoint x="605" y="720" />
            </Array>
          </mxGeometry>
        </mxCell>
        <mxCell id="yI4ZCZoyr8CGcQq7hegF-54" value="&lt;font style=&quot;font-size: 14px;&quot;&gt;k++&lt;/font&gt;" style="rounded=1;whiteSpace=wrap;html=1;" vertex="1" parent="1">
          <mxGeometry x="560" y="632.5" width="90" height="45" as="geometry" />
        </mxCell>
        <mxCell id="yI4ZCZoyr8CGcQq7hegF-59" style="edgeStyle=orthogonalEdgeStyle;rounded=0;orthogonalLoop=1;jettySize=auto;html=1;exitX=0;exitY=0.5;exitDx=0;exitDy=0;entryX=1;entryY=0.5;entryDx=0;entryDy=0;" edge="1" parent="1" source="yI4ZCZoyr8CGcQq7hegF-61" target="yI4ZCZoyr8CGcQq7hegF-65">
          <mxGeometry relative="1" as="geometry" />
        </mxCell>
        <mxCell id="yI4ZCZoyr8CGcQq7hegF-60" value="Yes" style="edgeLabel;html=1;align=center;verticalAlign=middle;resizable=0;points=[];" vertex="1" connectable="0" parent="yI4ZCZoyr8CGcQq7hegF-59">
          <mxGeometry x="-0.2" y="1" relative="1" as="geometry">
            <mxPoint as="offset" />
          </mxGeometry>
        </mxCell>
        <mxCell id="yI4ZCZoyr8CGcQq7hegF-73" style="edgeStyle=orthogonalEdgeStyle;rounded=0;orthogonalLoop=1;jettySize=auto;html=1;exitX=1;exitY=0.5;exitDx=0;exitDy=0;entryX=0;entryY=0.5;entryDx=0;entryDy=0;" edge="1" parent="1" source="yI4ZCZoyr8CGcQq7hegF-61" target="yI4ZCZoyr8CGcQq7hegF-72">
          <mxGeometry relative="1" as="geometry" />
        </mxCell>
        <mxCell id="yI4ZCZoyr8CGcQq7hegF-75" value="No" style="edgeLabel;html=1;align=center;verticalAlign=middle;resizable=0;points=[];" vertex="1" connectable="0" parent="yI4ZCZoyr8CGcQq7hegF-73">
          <mxGeometry x="-0.5556" y="2" relative="1" as="geometry">
            <mxPoint as="offset" />
          </mxGeometry>
        </mxCell>
        <mxCell id="yI4ZCZoyr8CGcQq7hegF-61" value="&lt;font style=&quot;font-size: 14px;&quot;&gt;v&amp;gt;=11 &amp;amp;&amp;amp; v&amp;gt;=k+2&lt;/font&gt;" style="rhombus;whiteSpace=wrap;html=1;" vertex="1" parent="1">
          <mxGeometry x="265" y="760" width="80" height="80" as="geometry" />
        </mxCell>
        <mxCell id="yI4ZCZoyr8CGcQq7hegF-77" style="edgeStyle=orthogonalEdgeStyle;rounded=0;orthogonalLoop=1;jettySize=auto;html=1;exitX=0.5;exitY=1;exitDx=0;exitDy=0;entryX=1;entryY=0.5;entryDx=0;entryDy=0;" edge="1" parent="1" source="yI4ZCZoyr8CGcQq7hegF-65" target="yI4ZCZoyr8CGcQq7hegF-83">
          <mxGeometry relative="1" as="geometry">
            <mxPoint x="690" y="550" as="targetPoint" />
            <Array as="points">
              <mxPoint x="185" y="890" />
              <mxPoint x="690" y="890" />
              <mxPoint x="690" y="510" />
            </Array>
          </mxGeometry>
        </mxCell>
        <mxCell id="yI4ZCZoyr8CGcQq7hegF-65" value="&lt;font style=&quot;font-size: 14px;&quot;&gt;v++&lt;/font&gt;" style="rounded=1;whiteSpace=wrap;html=1;" vertex="1" parent="1">
          <mxGeometry x="140" y="777.5" width="90" height="45" as="geometry" />
        </mxCell>
        <mxCell id="yI4ZCZoyr8CGcQq7hegF-81" style="edgeStyle=orthogonalEdgeStyle;rounded=0;orthogonalLoop=1;jettySize=auto;html=1;exitX=0.5;exitY=1;exitDx=0;exitDy=0;" edge="1" parent="1" source="yI4ZCZoyr8CGcQq7hegF-66">
          <mxGeometry relative="1" as="geometry">
            <mxPoint x="605" y="890" as="targetPoint" />
          </mxGeometry>
        </mxCell>
        <mxCell id="yI4ZCZoyr8CGcQq7hegF-66" value="&lt;font style=&quot;font-size: 14px;&quot;&gt;k++&lt;/font&gt;" style="rounded=1;whiteSpace=wrap;html=1;" vertex="1" parent="1">
          <mxGeometry x="560" y="777.5" width="90" height="45" as="geometry" />
        </mxCell>
        <mxCell id="yI4ZCZoyr8CGcQq7hegF-74" style="edgeStyle=orthogonalEdgeStyle;rounded=0;orthogonalLoop=1;jettySize=auto;html=1;exitX=1;exitY=0.5;exitDx=0;exitDy=0;entryX=0;entryY=0.5;entryDx=0;entryDy=0;" edge="1" parent="1" source="yI4ZCZoyr8CGcQq7hegF-72" target="yI4ZCZoyr8CGcQq7hegF-66">
          <mxGeometry relative="1" as="geometry" />
        </mxCell>
        <mxCell id="yI4ZCZoyr8CGcQq7hegF-76" value="Yes" style="edgeLabel;html=1;align=center;verticalAlign=middle;resizable=0;points=[];" vertex="1" connectable="0" parent="yI4ZCZoyr8CGcQq7hegF-74">
          <mxGeometry x="-0.3333" relative="1" as="geometry">
            <mxPoint as="offset" />
          </mxGeometry>
        </mxCell>
        <mxCell id="yI4ZCZoyr8CGcQq7hegF-79" style="edgeStyle=orthogonalEdgeStyle;rounded=0;orthogonalLoop=1;jettySize=auto;html=1;exitX=0.5;exitY=1;exitDx=0;exitDy=0;" edge="1" parent="1" source="yI4ZCZoyr8CGcQq7hegF-72">
          <mxGeometry relative="1" as="geometry">
            <mxPoint x="475" y="890" as="targetPoint" />
          </mxGeometry>
        </mxCell>
        <mxCell id="yI4ZCZoyr8CGcQq7hegF-80" value="No" style="edgeLabel;html=1;align=center;verticalAlign=middle;resizable=0;points=[];" vertex="1" connectable="0" parent="yI4ZCZoyr8CGcQq7hegF-79">
          <mxGeometry x="-0.3822" y="-1" relative="1" as="geometry">
            <mxPoint as="offset" />
          </mxGeometry>
        </mxCell>
        <mxCell id="yI4ZCZoyr8CGcQq7hegF-72" value="&lt;font style=&quot;font-size: 14px;&quot;&gt;k&amp;gt;=11 &amp;amp;&amp;amp; k&amp;gt;=k+2&lt;/font&gt;" style="rhombus;whiteSpace=wrap;html=1;" vertex="1" parent="1">
          <mxGeometry x="435" y="760" width="80" height="80" as="geometry" />
        </mxCell>
        <mxCell id="yI4ZCZoyr8CGcQq7hegF-84" style="edgeStyle=orthogonalEdgeStyle;rounded=0;orthogonalLoop=1;jettySize=auto;html=1;exitX=0;exitY=0.5;exitDx=0;exitDy=0;" edge="1" parent="1" source="yI4ZCZoyr8CGcQq7hegF-83">
          <mxGeometry relative="1" as="geometry">
            <mxPoint x="410" y="480" as="targetPoint" />
            <Array as="points">
              <mxPoint x="540" y="510" />
              <mxPoint x="540" y="480" />
            </Array>
          </mxGeometry>
        </mxCell>
        <mxCell id="yI4ZCZoyr8CGcQq7hegF-83" value="&lt;font style=&quot;font-size: 14px;&quot;&gt;i++&lt;/font&gt;" style="rounded=1;whiteSpace=wrap;html=1;" vertex="1" parent="1">
          <mxGeometry x="570" y="490" width="80" height="40" as="geometry" />
        </mxCell>
        <mxCell id="yI4ZCZoyr8CGcQq7hegF-90" style="edgeStyle=orthogonalEdgeStyle;rounded=0;orthogonalLoop=1;jettySize=auto;html=1;exitX=1;exitY=0.5;exitDx=0;exitDy=0;entryX=0;entryY=0.5;entryDx=0;entryDy=0;" edge="1" parent="1" source="yI4ZCZoyr8CGcQq7hegF-86" target="yI4ZCZoyr8CGcQq7hegF-89">
          <mxGeometry relative="1" as="geometry" />
        </mxCell>
        <mxCell id="yI4ZCZoyr8CGcQq7hegF-86" value="&lt;font style=&quot;font-size: 14px;&quot;&gt;pk&amp;lt;&amp;lt;&quot;:&quot;&amp;lt;&amp;lt;pv&lt;/font&gt;" style="shape=parallelogram;perimeter=parallelogramPerimeter;whiteSpace=wrap;html=1;fixedSize=1;" vertex="1" parent="1">
          <mxGeometry x="354" y="930" width="120" height="60" as="geometry" />
        </mxCell>
        <mxCell id="yI4ZCZoyr8CGcQq7hegF-92" style="edgeStyle=orthogonalEdgeStyle;rounded=0;orthogonalLoop=1;jettySize=auto;html=1;exitX=1;exitY=0.5;exitDx=0;exitDy=0;entryX=0;entryY=0.5;entryDx=0;entryDy=0;" edge="1" parent="1" source="yI4ZCZoyr8CGcQq7hegF-89" target="yI4ZCZoyr8CGcQq7hegF-91">
          <mxGeometry relative="1" as="geometry" />
        </mxCell>
        <mxCell id="yI4ZCZoyr8CGcQq7hegF-93" value="Yes" style="edgeLabel;html=1;align=center;verticalAlign=middle;resizable=0;points=[];" vertex="1" connectable="0" parent="yI4ZCZoyr8CGcQq7hegF-92">
          <mxGeometry x="-0.3818" y="2" relative="1" as="geometry">
            <mxPoint as="offset" />
          </mxGeometry>
        </mxCell>
        <mxCell id="yI4ZCZoyr8CGcQq7hegF-94" style="edgeStyle=orthogonalEdgeStyle;rounded=0;orthogonalLoop=1;jettySize=auto;html=1;exitX=0.5;exitY=1;exitDx=0;exitDy=0;entryX=0.5;entryY=0;entryDx=0;entryDy=0;" edge="1" parent="1" source="yI4ZCZoyr8CGcQq7hegF-89" target="yI4ZCZoyr8CGcQq7hegF-1">
          <mxGeometry relative="1" as="geometry">
            <Array as="points">
              <mxPoint x="555" y="1050" />
              <mxPoint x="414" y="1050" />
            </Array>
          </mxGeometry>
        </mxCell>
        <mxCell id="yI4ZCZoyr8CGcQq7hegF-96" value="No" style="edgeLabel;html=1;align=center;verticalAlign=middle;resizable=0;points=[];" vertex="1" connectable="0" parent="yI4ZCZoyr8CGcQq7hegF-94">
          <mxGeometry x="-0.8736" y="1" relative="1" as="geometry">
            <mxPoint as="offset" />
          </mxGeometry>
        </mxCell>
        <mxCell id="yI4ZCZoyr8CGcQq7hegF-89" value="&lt;font style=&quot;font-size: 14px;&quot;&gt;k&amp;gt;0 || v&amp;gt;0&lt;/font&gt;" style="rhombus;whiteSpace=wrap;html=1;" vertex="1" parent="1">
          <mxGeometry x="515" y="920" width="80" height="80" as="geometry" />
        </mxCell>
        <mxCell id="yI4ZCZoyr8CGcQq7hegF-95" style="edgeStyle=orthogonalEdgeStyle;rounded=0;orthogonalLoop=1;jettySize=auto;html=1;exitX=0.5;exitY=1;exitDx=0;exitDy=0;" edge="1" parent="1" source="yI4ZCZoyr8CGcQq7hegF-91">
          <mxGeometry relative="1" as="geometry">
            <mxPoint x="550" y="1050" as="targetPoint" />
            <Array as="points">
              <mxPoint x="700" y="1050" />
            </Array>
          </mxGeometry>
        </mxCell>
        <mxCell id="yI4ZCZoyr8CGcQq7hegF-91" value="&lt;font style=&quot;font-size: 14px;&quot;&gt;k&amp;lt;&amp;lt;&quot;:&quot;&amp;lt;&amp;lt;v&lt;/font&gt;" style="shape=parallelogram;perimeter=parallelogramPerimeter;whiteSpace=wrap;html=1;fixedSize=1;" vertex="1" parent="1">
          <mxGeometry x="640" y="930" width="120" height="60" as="geometry" />
        </mxCell>
      </root>
    </mxGraphModel>
  </diagram>
</mxfile>
